<svg xmlns="http://www.w3.org/2000/svg" xmlns:xlink="http://www.w3.org/1999/xlink" width="24.573" height="24.573" viewBox="0 0 24.573 24.573">
  <defs>
    <clipPath id="clip-path">
      <rect width="24.573" height="24.573" fill="none"/>
    </clipPath>
    <clipPath id="clip-path-2">
      <rect width="16" height="16" fill="none"/>
    </clipPath>
  </defs>
  <g id="Component_5_3" data-name="Component 5 – 3" transform="translate(24.573 24.573) rotate(180)" clip-path="url(#clip-path)">
    <g id="Down_arrow" data-name="Down arrow" transform="translate(20.445 20.445) rotate(-180)" clip-path="url(#clip-path-2)">
      <path id="Path_10" data-name="Path 10" d="M8,0,6.545,1.455l5.506,5.506H0V9.039H12.052L6.545,14.545,8,16l8-8Z" transform="translate(16) rotate(90)" fill="#ea847c"/>
    </g>
    <g id="Path_309" data-name="Path 309" fill="none">
      <path d="M4.074,0H20.5a4.074,4.074,0,0,1,4.074,4.074V20.5A4.074,4.074,0,0,1,20.5,24.573H4.074A4.074,4.074,0,0,1,0,20.5V4.074A4.074,4.074,0,0,1,4.074,0Z" stroke="none"/>
      <path d="M 4.073810577392578 2 C 2.93031120300293 2 2 2.93031120300293 2 4.073810577392578 L 2 20.49936103820801 C 2 21.64286994934082 2.93031120300293 22.57318115234375 4.073810577392578 22.57318115234375 L 20.49936103820801 22.57318115234375 C 21.64286994934082 22.57318115234375 22.57318115234375 21.64286994934082 22.57318115234375 20.49936103820801 L 22.57318115234375 4.073810577392578 C 22.57318115234375 2.93031120300293 21.64286994934082 2 20.49936103820801 2 L 4.073810577392578 2 M 4.073810577392578 0 L 20.49936103820801 0 C 22.74927139282227 0 24.57318115234375 1.823909759521484 24.57318115234375 4.073810577392578 L 24.57318115234375 20.49936103820801 C 24.57318115234375 22.74927139282227 22.74927139282227 24.57318115234375 20.49936103820801 24.57318115234375 L 4.073810577392578 24.57318115234375 C 1.823909759521484 24.57318115234375 0 22.74927139282227 0 20.49936103820801 L 0 4.073810577392578 C 0 1.823909759521484 1.823909759521484 0 4.073810577392578 0 Z" stroke="none" fill="#f58e81"/>
    </g>
  </g>
</svg>
