<svg xmlns="http://www.w3.org/2000/svg" xmlns:xlink="http://www.w3.org/1999/xlink" width="109.922" height="109.922" viewBox="0 0 109.922 109.922">
  <defs>
    <clipPath id="clip-path">
      <rect width="24.57" height="24.57" fill="none"/>
    </clipPath>
  </defs>
  <g id="Group_1573" data-name="Group 1573" transform="translate(-133 -348)">
    <rect id="Rectangle_1478" data-name="Rectangle 1478" width="109.922" height="109.922" transform="translate(133 348)" fill="#fff"/>
    <text id="Grupper" transform="translate(188 437)" fill="#f58e81" font-size="12" font-family="Gibson-SemiBold, Gibson" font-weight="600"><tspan x="-23.466" y="0">Grupper</tspan></text>
    <g id="Group_1572" data-name="Group 1572">
      <g id="Profile" transform="translate(163 386.43)" clip-path="url(#clip-path)">
        <path id="Union_1" data-name="Union 1" d="M0,24.57V21.5c0-3.379,5.528-6.143,12.285-6.143S24.57,18.12,24.57,21.5V24.57ZM6.142,6.143a6.142,6.142,0,1,1,6.143,6.142A6.143,6.143,0,0,1,6.142,6.143Z" fill="#ea847c"/>
      </g>
      <g id="Profile-2" data-name="Profile" transform="translate(189.176 375.753)" clip-path="url(#clip-path)">
        <path id="Union_1-2" data-name="Union 1" d="M0,24.57V21.5c0-3.379,5.528-6.143,12.285-6.143S24.57,18.12,24.57,21.5V24.57ZM6.142,6.143a6.142,6.142,0,1,1,6.143,6.142A6.143,6.143,0,0,1,6.142,6.143Z" fill="#ea847c"/>
      </g>
    </g>
  </g>
</svg>
