<svg id="Group_1610" data-name="Group 1610" xmlns="http://www.w3.org/2000/svg" width="375" height="226.437" viewBox="0 0 375 226.437">
  <g id="Header">
    <rect id="Rectangle_134" data-name="Rectangle 134" width="375" height="226.437" fill="#ea5045"/>
    <text id="ADOBE_XD" data-name="ADOBE XD" transform="translate(188 196.437)" fill="#ea5045" font-size="30" font-family="ArialMT, Arial"><tspan x="-77.52" y="0">ADOBE</tspan><tspan y="0" xml:space="preserve" font-family="Arial-BoldMT, Arial" font-weight="700"> XD</tspan></text>
  </g>
  <g id="Group_1604" data-name="Group 1604" transform="translate(-27.868 7.964)">
    <g id="Artwork_2" data-name="Artwork 2" transform="translate(152 100.779)">
      <g id="Artwork_2-2" data-name="Artwork 2" transform="translate(0 0)">
        <path id="Path_115" data-name="Path 115" d="M121.717,0H99.94V5.467h21.418c7.348,0,9.589,2.33,10.126,5.915H109.529c-8.155,0-11.829,3.137-11.829,10.216S101.374,31.9,109.619,31.9h27.243V13.711C136.951,4.481,131.933,0,121.717,0m9.947,26.526H110.246c-6.721,0-6.99-1.523-6.99-4.929s.717-4.75,7.08-4.75h21.239Z" transform="translate(-10.146 0)" fill="#fff"/>
        <path id="Path_116" data-name="Path 116" d="M52.535,20.343H74.312c8.155,0,11.829-3.137,11.829-10.126S82.556,0,74.222,0H62.572C48.772,0,46.8,7.707,46.8,16.041s1.972,15.951,15.683,15.951H84.8V26.616H62.931c-7.528,0-9.678-1.972-10.4-6.183m10.4-15.145H73.684c6.363,0,6.99,1.523,6.99,4.929s-.627,4.66-7.08,4.66H52.267c.179-6.721,1.882-9.589,10.664-9.589" transform="translate(-4.86)" fill="#fff"/>
        <path id="Path_117" data-name="Path 117" d="M31.365,0,5.377,24.823V0H0V31.993H5.735L18.192,20.074,32.351,31.993h8.513L22.135,16.31,39.162,0Z" fill="#fff"/>
      </g>
    </g>
  </g>
</svg>
