<svg xmlns="http://www.w3.org/2000/svg" xmlns:xlink="http://www.w3.org/1999/xlink" width="20" height="20" viewBox="0 0 20 20">
  <defs>
    <clipPath id="clip-path">
      <rect width="20" height="20" fill="none"/>
    </clipPath>
  </defs>
  <g id="Attachment" clip-path="url(#clip-path)">
    <rect id="Rectangle_314" data-name="Rectangle 314" width="20" height="20" fill="none"/>
    <path id="Path_125" data-name="Path 125" d="M7,20a6.307,6.307,0,0,1-4.667-2A6.439,6.439,0,0,1,0,13a6.688,6.688,0,0,1,.5-2.5,5.763,5.763,0,0,1,1.167-2L5,5.167A4.016,4.016,0,0,1,8,4a4.553,4.553,0,0,1,3.167,1.333A4.28,4.28,0,0,1,12.5,8.667a4.016,4.016,0,0,1-1.167,3L9.5,13.333a1.273,1.273,0,0,1-.833.333,1.787,1.787,0,0,1-1-.333,2.369,2.369,0,0,1-.333-1,2.369,2.369,0,0,1,.333-1L9.5,9.5a1.008,1.008,0,0,0,.5-1A2.036,2.036,0,0,0,9.333,7a1.942,1.942,0,0,0-1.167-.333A2.409,2.409,0,0,0,7,7L3.5,10.333A4.611,4.611,0,0,0,2.667,13,4.876,4.876,0,0,0,4,16.167a3.458,3.458,0,0,0,1.667,1,2.881,2.881,0,0,0,1.667.167c.5-.167,1-.167,1.333-.333a3.487,3.487,0,0,0,1-.667l6.667-6.667A3.655,3.655,0,0,0,17.5,6.833,4.366,4.366,0,0,0,16,3.667a7.422,7.422,0,0,0-2-1H12.5a3.529,3.529,0,0,0-1.167.5,2.114,2.114,0,0,1-1,.167A1.107,1.107,0,0,1,9.5,2.667c-.167-.167-.167-.5-.167-1A2.926,2.926,0,0,1,10,.833,6.564,6.564,0,0,1,13.333,0a6.17,6.17,0,0,1,4.333,1.667,7.033,7.033,0,0,1,2.333,5A6.522,6.522,0,0,1,18.167,11.5L11.5,18.167A6.154,6.154,0,0,1,7,20Z" fill="#ea847c"/>
  </g>
</svg>
