<svg xmlns="http://www.w3.org/2000/svg" width="57.849" height="14.605" viewBox="0 0 57.849 14.605">
  <g id="Group_1585" data-name="Group 1585" transform="translate(-152 -100.779)">
    <g id="Artwork_2" data-name="Artwork 2" transform="translate(152 100.779)">
      <g id="Artwork_2-2" data-name="Artwork 2" transform="translate(0 0)">
        <path id="Path_115" data-name="Path 115" d="M108.664,0H98.723V2.5H108.5c3.355,0,4.378,1.064,4.623,2.7H103.1c-3.723,0-5.4,1.432-5.4,4.664s1.677,4.7,5.441,4.7h12.437v-8.3C115.619,2.046,113.328,0,108.664,0m4.541,12.11h-9.778c-3.068,0-3.191-.7-3.191-2.25s.327-2.168,3.232-2.168h9.7Z" transform="translate(-57.73 0)" fill="#fff"/>
        <path id="Path_116" data-name="Path 116" d="M49.418,9.287H59.36c3.723,0,5.4-1.432,5.4-4.623S63.124,0,59.319,0H54c-6.3,0-7.2,3.518-7.2,7.323s.9,7.282,7.159,7.282H64.146V12.151H54.164c-3.437,0-4.418-.9-4.746-2.823m4.746-6.914h4.909c2.9,0,3.191.7,3.191,2.25s-.286,2.127-3.232,2.127H49.3c.082-3.068.859-4.377,4.868-4.377" transform="translate(-27.654)" fill="#fff"/>
        <path id="Path_117" data-name="Path 117" d="M14.319,0,2.455,11.332V0H0V14.605H2.618L8.3,9.164l6.464,5.441h3.887l-8.55-7.159L17.878,0Z" fill="#fff"/>
      </g>
    </g>
  </g>
</svg>
