<svg xmlns="http://www.w3.org/2000/svg" xmlns:xlink="http://www.w3.org/1999/xlink" width="109.922" height="109.922" viewBox="0 0 109.922 109.922">
  <defs>
    <clipPath id="clip-path">
      <rect width="109.922" height="109.922" fill="none"/>
    </clipPath>
  </defs>
  <g id="Component_6_4" data-name="Component 6 – 4" clip-path="url(#clip-path)">
    <g id="Component_4_3" data-name="Component 4 – 3" clip-path="url(#clip-path)">
      <rect id="Rectangle_1477" data-name="Rectangle 1477" width="109.922" height="109.922" fill="#fff"/>
    </g>
    <text id="xxx" transform="translate(55 89)" fill="#f58e81" font-size="12" font-family="Gibson-SemiBold, Gibson" font-weight="600"><tspan x="-10.188" y="0">xxx</tspan></text>
    <path id="Path_146" data-name="Path 146" d="M16.554,0A16.554,16.554,0,1,0,33.107,16.554,16.6,16.6,0,0,0,16.554,0Zm-.166,27.479a2.318,2.318,0,1,1,2.318-2.318A2.263,2.263,0,0,1,16.388,27.479Zm4.469-12.912-1.821,1.986a2.022,2.022,0,0,0-.662,1.49,2.013,2.013,0,0,1-1.986,1.986A1.913,1.913,0,0,1,14.4,18.043a3.694,3.694,0,0,1,1.324-2.98l1.49-1.821a3.757,3.757,0,0,0,1.159-2.318A1.737,1.737,0,0,0,16.554,9.1a1.947,1.947,0,0,0-1.986,1.49,2.162,2.162,0,0,1-1.986,1.159A1.737,1.737,0,0,1,10.76,9.932a1.8,1.8,0,0,1,.166-.828c.662-1.986,2.649-3.476,5.628-3.476,3.476,0,5.794,2.318,5.794,5.3A5.431,5.431,0,0,1,20.858,14.567Z" transform="translate(38 32.443)" fill="#ea847c"/>
  </g>
</svg>
