<svg xmlns="http://www.w3.org/2000/svg" xmlns:xlink="http://www.w3.org/1999/xlink" width="109.922" height="109.922" viewBox="0 0 109.922 109.922">
  <defs>
    <clipPath id="clip-path">
      <rect width="40" height="40" fill="none"/>
    </clipPath>
  </defs>
  <g id="Group_1567" data-name="Group 1567" transform="translate(-134 -105)">
    <rect id="Rectangle_1471" data-name="Rectangle 1471" width="109.922" height="109.922" transform="translate(134 105)" fill="#fff"/>
    <g id="Calendar" transform="translate(169 132)" clip-path="url(#clip-path)">
      <rect id="Rectangle_557" data-name="Rectangle 557" width="16" height="16" fill="none"/>
      <path id="Path_149" data-name="Path 149" d="M5,12.5V35H35V12.5ZM32.5,5h5A2.362,2.362,0,0,1,40,7.5v30A2.362,2.362,0,0,1,37.5,40H2.5A2.362,2.362,0,0,1,0,37.5V7.5A2.362,2.362,0,0,1,2.5,5h5V2.5A2.362,2.362,0,0,1,10,0a2.362,2.362,0,0,1,2.5,2.5V5h15V2.5a2.5,2.5,0,0,1,5,0ZM30,30H25V25h5Zm-7.5,0h-5V25h5ZM30,22.5H25v-5h5Zm-7.5,0h-5v-5h5ZM15,30H10V25h5Z" fill="#ea847c" fill-rule="evenodd"/>
    </g>
    <text id="Skema" transform="translate(189 192)" fill="#f58e81" font-size="12" font-family="Gibson-SemiBold, Gibson" font-weight="600"><tspan x="-18.456" y="0">Skema</tspan></text>
  </g>
</svg>
